# File created by Blade
# Date/Time:  Wed Jan 21 14:55:15 2015
# Frame Rate: 120.000 fps
#------------------------------------------------------
:FULLY-SPECIFIED
:DEGREES
773
root 18.801362 17.526219 -19.383231 -102.963005 82.801430 -119.937173
Spine 6.472501 -5.114704 8.115528
Head 0.406497 0.316348 -6.558008
LeftShoulder -17.585886 -37.697396 20.974745
LeftArm -21.984009 -0.370276 -12.526621
LeftForeArm -2.568853 0.000000 1.056650
LeftHand -11.454315 -0.000000 5.544590
LeftHandThumb1 -26.253704 0.000000 33.147579
RightShoulder -10.341816 0.403305 -15.643407
RightArm -4.830971 43.708457 19.320129
RightForeArm -31.880331 -0.000000 8.978730
RightHand -14.921050 -0.000000 -3.143857
RightHandThumb1 -24.326973 -0.000000 -32.862282
LeftUpLeg 9.454501 13.238071 7.450455
LeftLeg 76.025756 -0.000000 -0.000000
LeftFoot -19.625647 14.711979 -13.508936
LeftToeBase -78.482351 -0.000000 0.000000
RightUpLeg -104.683839 14.103996 11.157994
RightLeg 108.507476 -0.000000 -0.000000
RightFoot -38.559726 -24.401083 13.334832
RightToeBase 24.221509 -0.000000 -0.000000
774
root 18.800906 17.526761 -19.368544 -103.332665 82.795812 -120.061626
Spine 6.287067 -5.172851 8.163746
Head 0.533195 0.590979 -6.784417
LeftShoulder -17.576488 -37.502901 20.804445
LeftArm -21.761865 -0.365086 -12.617513
LeftForeArm -2.544971 0.000000 0.918776
LeftHand -11.324443 -0.000000 5.421059
LeftHandThumb1 -26.253704 0.000000 33.147579
RightShoulder -10.304644 0.366050 -15.642035
RightArm -4.278906 43.700951 19.539535
RightForeArm -31.820865 0.000000 8.882067
RightHand -14.879214 -0.000000 -3.215706
RightHandThumb1 -24.326973 -0.000000 -32.862282
LeftUpLeg 9.701533 13.272571 7.579854
LeftLeg 76.030954 -0.000000 -0.000000
LeftFoot -19.630800 14.827697 -13.536513
LeftToeBase -78.118141 -0.000000 0.000000
RightUpLeg -104.410944 14.058041 11.256549
RightLeg 108.488494 -0.000000 -0.000000
RightFoot -38.612818 -24.457098 13.310415
RightToeBase 24.325833 -0.000000 -0.000000
775
root 18.801588 17.529818 -19.353819 -103.803594 82.786279 -120.282247
Spine 6.109593 -5.221381 8.214650
Head 0.699921 0.836410 -7.007419
LeftShoulder -17.480479 -37.398325 20.588932
LeftArm -21.628270 -0.407002 -12.603411
LeftForeArm -2.433539 0.000000 0.805315
LeftHand -11.298735 -0.000000 5.304324
LeftHandThumb1 -26.253704 0.000000 33.147579
RightShoulder -10.221961 0.339655 -15.641659
RightArm -3.852391 43.592976 19.691065
RightForeArm -31.611699 0.000000 8.868931
RightHand -14.896791 -0.000000 -3.281082
RightHandThumb1 -24.326973 -0.000000 -32.862282
LeftUpLeg 9.951969 13.307751 7.719782
LeftLeg 76.025001 -0.000000 -0.000000
LeftFoot -19.626527 14.978430 -13.538481
LeftToeBase -77.699797 -0.000000 0.000000
RightUpLeg -104.133632 13.995174 11.352386
RightLeg 108.475176 -0.000000 -0.000000
RightFoot -38.660101 -24.478424 13.318481
RightToeBase 24.400913 -0.000000 -0.000000
776
root 18.803252 17.534271 -19.335610 -104.372880 82.746929 -120.577963
Spine 6.007656 -5.309795 8.283060
Head 0.772911 1.074818 -7.226622
LeftShoulder -17.511250 -37.185232 20.470813
LeftArm -21.393343 -0.555073 -12.723259
LeftForeArm -2.414389 -0.000000 0.659077
LeftHand -11.235266 -0.000000 5.155030
LeftHandThumb1 -26.253704 0.000000 33.147579
RightShoulder -10.157727 0.355000 -15.643631
RightArm -3.381087 43.484972 19.879650
RightForeArm -31.525837 0.000000 8.852954
RightHand -14.859938 0.000000 -3.252647
RightHandThumb1 -24.326973 -0.000000 -32.862282
LeftUpLeg 10.213441 13.317387 7.900744
LeftLeg 76.027832 -0.000000 -0.000000
LeftFoot -19.608883 15.120220 -13.539522
LeftToeBase -77.298687 -0.000000 0.000000
RightUpLeg -103.822869 13.932319 11.463665
RightLeg 108.445906 -0.000000 -0.000000
RightFoot -38.741478 -24.513182 13.370010
RightToeBase 24.544779 -0.000000 -0.000000
777
root 18.807242 17.541542 -19.312338 -104.927530 82.667002 -120.849617
Spine 5.912784 -5.441129 8.377999
Head 0.917142 1.336290 -7.419243
LeftShoulder -17.428926 -37.192873 20.339003
LeftArm -21.420656 -0.557636 -12.680854
LeftForeArm -2.191790 0.000000 0.596934
LeftHand -11.223767 -0.000000 5.152507
LeftHandThumb1 -26.253704 0.000000 33.147579
RightShoulder -10.011787 0.320721 -15.624036
RightArm -2.901898 43.389172 20.070158
RightForeArm -31.556772 -0.000000 8.809809
RightHand -14.858089 -0.000000 -3.241139
RightHandThumb1 -24.326973 -0.000000 -32.862282
LeftUpLeg 10.479537 13.325509 8.142476
LeftLeg 76.029724 -0.000000 -0.000000
LeftFoot -19.544101 15.270818 -13.620297
LeftToeBase -77.699062 -0.000000 0.000000
RightUpLeg -103.478985 13.883011 11.611376
RightLeg 108.406991 -0.000000 -0.000000
RightFoot -38.830807 -24.563408 13.416154
RightToeBase 24.614953 -0.000000 -0.000000
778
root 18.810650 17.549921 -19.285585 -105.463367 82.547861 -121.121594
Spine 5.833667 -5.509132 8.524036
Head 0.973113 1.598978 -7.593079
LeftShoulder -17.351387 -37.131784 20.198826
LeftArm -21.314235 -0.545909 -12.760988
LeftForeArm -2.219187 -0.000000 0.412558
LeftHand -11.114599 -0.000000 5.156621
LeftHandThumb1 -26.253704 0.000000 33.147579
RightShoulder -9.911872 0.328615 -15.663063
RightArm -2.542441 43.157248 20.255001
RightForeArm -31.629804 -0.000000 8.796594
RightHand -14.738798 -0.000000 -3.163040
RightHandThumb1 -24.326973 -0.000000 -32.862282
LeftUpLeg 10.712574 13.320279 8.425683
LeftLeg 76.048954 -0.000000 -0.000000
LeftFoot -19.466525 15.400412 -13.655966
LeftToeBase -77.884265 -0.000000 0.000000
RightUpLeg -103.148823 13.852076 11.777170
RightLeg 108.354157 -0.000000 -0.000000
RightFoot -38.920929 -24.643070 13.488812
RightToeBase 24.688053 -0.000000 -0.000000
779
root 18.836606 17.566345 -19.224883 -105.123903 82.139923 -120.276019
Spine 6.066747 -5.585283 8.990247
Head 0.964078 1.853618 -7.852827
LeftShoulder -17.433847 -36.895075 20.025761
LeftArm -20.996440 -0.688633 -12.918502
LeftForeArm -2.276461 -0.000000 0.263736
LeftHand -11.181028 -0.000000 5.012936
LeftHandThumb1 -26.253704 0.000000 33.147579
RightShoulder -9.772512 0.364385 -15.708215
RightArm -2.156943 42.818967 20.440890
RightForeArm -31.618232 -0.000000 8.756109
RightHand -14.738489 -0.000000 -3.108073
RightHandThumb1 -24.326973 -0.000000 -32.862282
LeftUpLeg 11.273182 13.351072 9.246833
LeftLeg 75.999706 -0.000000 -0.000000
LeftFoot -19.331559 15.486258 -13.557172
LeftToeBase -78.672663 -0.000000 0.000000
RightUpLeg -102.433047 13.957337 12.326066
RightLeg 108.227763 -0.000000 -0.000000
RightFoot -39.085109 -24.779592 13.662115
RightToeBase 24.608991 -0.000000 -0.000000
780
root 18.840385 17.581843 -19.194455 -105.839015 81.987940 -120.718335
Spine 6.057040 -5.730894 9.143903
Head 0.971739 2.148861 -7.990734
LeftShoulder -17.502307 -36.708062 20.001179
LeftArm -20.810927 -0.780775 -13.131345
LeftForeArm -2.368548 0.000000 0.112300
LeftHand -11.183526 -0.000000 4.776641
LeftHandThumb1 -26.253704 0.000000 33.147579
RightShoulder -9.626990 0.349739 -15.735735
RightArm -1.719387 42.604015 20.661797
RightForeArm -31.749964 0.000000 8.616280
RightHand -14.625337 -0.000000 -2.973933
RightHandThumb1 -24.326973 -0.000000 -32.862282
LeftUpLeg 11.473432 13.254869 9.533789
LeftLeg 76.041901 -0.000000 -0.000000
LeftFoot -19.189154 15.583798 -13.568487
LeftToeBase -79.052392 -0.000000 0.000000
RightUpLeg -102.074444 13.927806 12.492918
RightLeg 108.151048 -0.000000 -0.000000
RightFoot -39.184496 -24.871123 13.779385
RightToeBase 24.715513 -0.000000 -0.000000
781
root 18.844534 17.598771 -19.166923 -106.594055 81.857000 -121.212125
Spine 6.038592 -5.803671 9.283400
Head 1.012267 2.353754 -8.131485
LeftShoulder -17.394430 -36.668384 19.877465
LeftArm -20.720756 -0.748354 -13.241317
LeftForeArm -2.348478 -0.000000 -0.097464
LeftHand -11.167550 -0.000000 4.808727
LeftHandThumb1 -26.253704 0.000000 33.147579
RightShoulder -9.546865 0.226310 -15.737925
RightArm -1.209705 42.411807 20.887019
RightForeArm -31.783294 -0.000000 8.375244
RightHand -14.490874 -0.000000 -2.984156
RightHandThumb1 -24.326973 -0.000000 -32.862282
LeftUpLeg 11.649643 13.131761 9.772464
LeftLeg 76.088415 -0.000000 -0.000000
LeftFoot -19.031254 15.663282 -13.546798
LeftToeBase -79.455908 -0.000000 0.000000
RightUpLeg -101.733915 13.891711 12.613844
RightLeg 108.078128 -0.000000 -0.000000
RightFoot -39.280542 -24.945005 13.863674
RightToeBase 24.839150 -0.000000 -0.000000
782
root 18.847708 17.619410 -19.140003 -107.421941 81.725465 -121.774056
Spine 6.077189 -5.949682 9.395064
Head 0.967924 2.633334 -8.214999
LeftShoulder -17.421835 -36.620286 19.937402
LeftArm -20.673036 -0.754923 -13.449673
LeftForeArm -2.140606 -0.000000 -0.369673
LeftHand -10.771877 0.000000 4.623969
LeftHandThumb1 -26.253704 0.000000 33.147579
RightShoulder -9.380870 0.203315 -15.734011
RightArm -0.816212 42.231471 21.035406
RightForeArm -31.739169 0.000000 8.161161
RightHand -14.358910 -0.000000 -2.868322
RightHandThumb1 -24.326973 -0.000000 -32.862282
LeftUpLeg 11.804780 12.949804 9.969654
LeftLeg 76.165522 -0.000000 -0.000000
LeftFoot -18.717096 15.685507 -13.433095
LeftToeBase -79.682328 -0.000000 0.000000
RightUpLeg -101.388569 13.848617 12.726954
RightLeg 107.997679 -0.000000 -0.000000
RightFoot -39.375105 -24.995925 14.060089
RightToeBase 24.805576 -0.000000 -0.000000
783
root 18.849025 17.642091 -19.113199 -108.323896 81.605246 -122.469361
Spine 6.052133 -6.065318 9.488431
Head 0.953012 2.860319 -8.269135
LeftShoulder -17.314698 -36.563714 19.923078
LeftArm -20.738093 -0.824880 -13.552838
LeftForeArm -2.132147 -0.000000 -0.390438
LeftHand -10.986012 0.000000 3.988612
LeftHandThumb1 -26.253704 0.000000 33.147579
RightShoulder -9.318812 0.083738 -15.706002
RightArm -0.167125 42.245595 21.302581
RightForeArm -31.708810 -0.000000 7.762671
RightHand -14.272631 -0.000000 -2.884851
RightHandThumb1 -24.326973 -0.000000 -32.862282
LeftUpLeg 11.860748 12.723899 10.099078
LeftLeg 76.251804 -0.000000 -0.000000
LeftFoot -18.419567 15.755081 -13.356226
LeftToeBase -80.310540 -0.000000 0.000000
RightUpLeg -101.100117 13.820238 12.783346
RightLeg 107.909850 -0.000000 -0.000000
RightFoot -39.464321 -25.062861 14.196418
RightToeBase 24.821997 -0.000000 -0.000000
